# xmcd
# 
# Track frame offsets:
#     150
#     17780
#     29894
#     42011
#     58083
# 
# Disc length: 1027
# 
# Revision: 2
# Processed by: cddbd v1.5.2PL0 Copyright (c) Steve Scherf et al.
# Submitted via: BonkEnc v1.0.8
# 
DISCID=3f040105
DTITLE=Gito Gito Hustler - Ready Go!!
DYEAR=0
DGENRE=Punk Rock
TTITLE0=Life Gose on
TTITLE1=Ready Go!!
TTITLE2=What's My Lie
TTITLE3=Tokyo Boogie Woogie
TTITLE4=Shinrin
EXTD=
EXTT0=
EXTT1=
EXTT2=
EXTT3=
EXTT4=
PLAYORDER=
